<svg id="visual" viewBox="0 0 900 400" width="900" height="400" xmlns="http://www.w3.org/2000/svg">
  <path d="M0 400C150 300 250 250 300 200C350 150 450 150 500 200C550 250 650 250 700 200C750 150 850 100 900 0L900 400Z" fill="#9db2ff"></path>
  <path d="M0 400C150 300 250 350 300 300C350 250 450 250 500 300C550 350 650 350 700 300C750 250 850 200 900 100L900 400Z" fill="#4487ff"></path>
  <path d="M300 200C350 150 450 150 500 200C550 250 450 250 400 200C350 150 300 200 300 200Z" fill="#F3F6FB"></path>
</svg>
