<svg id="visual" viewBox="0 0 900 425" width="900" height="425" xmlns="http://www.w3.org/2000/svg" xmlns:xlink="http://www.w3.org/1999/xlink" version="1.1">
  <path d="M0 205L37.5 211C75 217 150 229 225 213C300 197 375 153 450 117C525 81 600 53 675 83C750 113 825 201 862.5 245L900 289L900 0L862.5 0C825 0 750 0 675 0C600 0 525 0 450 0C375 0 300 0 225 0C150 0 75 0 37.5 0L0 0Z" fill="#ff6752"></path>
  <path d="M0 355L37.5 364C75 373 150 391 225 356C300 321 375 233 450 170C525 107 600 69 675 98C750 127 825 223 862.5 271L900 319L900 287L862.5 243C825 199 750 111 675 81C600 51 525 79 450 115C375 151 300 195 225 211C150 227 75 215 37.5 209L0 203Z" fill="#ff9d88"></path>
  <path d="M0 415L37.5 416C75 417 150 419 225 386C300 353 375 285 450 255C525 225 600 233 675 257C750 281 825 321 862.5 341L900 361L900 317L862.5 269C825 221 750 125 675 96C600 67 525 105 450 168C375 231 300 319 225 354C150 389 75 371 37.5 362L0 353Z" fill="#ffcec2"></path>
  <path d="M0 601L37.5 601C75 601 150 601 225 601C300 601 375 601 450 601C525 601 600 601 675 601C750 601 825 601 862.5 601L900 601L900 359L862.5 339C825 319 750 279 675 255C600 231 525 223 450 253C375 283 300 351 225 384C150 417 75 415 37.5 414L0 413Z" fill="#F3F6FB"></path>
</svg>
