<svg id="visual" viewBox="0 0 900 600" width="900" height="600" xmlns="http://www.w3.org/2000/svg" xmlns:xlink="http://www.w3.org/1999/xlink" version="1.1"><path d="M0 331L25 293C50 255 100 179 150 155C200 131 250 159 300 160C350 161 400 135 450 157C500 179 550 249 600 295C650 341 700 363 750 335C800 307 850 229 875 190L900 151L900 0L875 0C850 0 800 0 750 0C700 0 650 0 600 0C550 0 500 0 450 0C400 0 350 0 300 0C250 0 200 0 150 0C100 0 50 0 25 0L0 0Z" fill="#ffffff"></path><path d="M0 391L25 354C50 317 100 243 150 212C200 181 250 193 300 190C350 187 400 169 450 208C500 247 550 343 600 387C650 431 700 423 750 388C800 353 850 291 875 260L900 229L900 149L875 188C850 227 800 305 750 333C700 361 650 339 600 293C550 247 500 177 450 155C400 133 350 159 300 158C250 157 200 129 150 153C100 177 50 253 25 291L0 329Z" fill="#9db2ff"></path><path d="M0 421L25 390C50 359 100 297 150 286C200 275 250 315 300 326C350 337 400 319 450 335C500 351 550 401 600 432C650 463 700 475 750 444C800 413 850 339 875 302L900 265L900 227L875 258C850 289 800 351 750 386C700 421 650 429 600 385C550 341 500 245 450 206C400 167 350 185 300 188C250 191 200 179 150 210C100 241 50 315 25 352L0 389Z" fill="#4487ff"></path><path d="M0 571L25 535C50 499 100 427 150 421C200 415 250 475 300 478C350 481 400 427 450 424C500 421 550 469 600 500C650 531 700 545 750 518C800 491 850 423 875 389L900 355L900 263L875 300C850 337 800 411 750 442C700 473 650 461 600 430C550 399 500 349 450 333C400 317 350 335 300 324C250 313 200 273 150 284C100 295 50 357 25 388L0 419Z" fill="#9db2ff"></path><path d="M0 601L25 601C50 601 100 601 150 601C200 601 250 601 300 601C350 601 400 601 450 601C500 601 550 601 600 601C650 601 700 601 750 601C800 601 850 601 875 601L900 601L900 353L875 387C850 421 800 489 750 516C700 543 650 529 600 498C550 467 500 419 450 422C400 425 350 479 300 476C250 473 200 413 150 419C100 425 50 497 25 533L0 569Z" fill="#ffffff"></path></svg>