<svg id="visual" viewBox="0 0 900 600" width="900" height="600" xmlns="http://www.w3.org/2000/svg" xmlns:xlink="http://www.w3.org/1999/xlink" version="1.1"><path d="M0 163L25 190C50 217 100 271 150 265C200 259 250 193 300 167C350 141 400 155 450 155C500 155 550 141 600 121C650 101 700 75 750 83C800 91 850 133 875 154L900 175L900 0L875 0C850 0 800 0 750 0C700 0 650 0 600 0C550 0 500 0 450 0C400 0 350 0 300 0C250 0 200 0 150 0C100 0 50 0 25 0L0 0Z" fill="#F3F6FB"></path><path d="M0 175L25 214C50 253 100 331 150 340C200 349 250 289 300 261C350 233 400 237 450 239C500 241 550 241 600 226C650 211 700 181 750 184C800 187 850 223 875 241L900 259L900 173L875 152C850 131 800 89 750 81C700 73 650 99 600 119C550 139 500 153 450 153C400 153 350 139 300 165C250 191 200 257 150 263C100 269 50 215 25 188L0 161Z" fill="#9db2ff"></path><path d="M0 331L25 350C50 369 100 407 150 398C200 389 250 333 300 314C350 295 400 313 450 327C500 341 550 351 600 335C650 319 700 277 750 264C800 251 850 267 875 275L900 283L900 257L875 239C850 221 800 185 750 182C700 179 650 209 600 224C550 239 500 239 450 237C400 235 350 231 300 259C250 287 200 347 150 338C100 329 50 251 25 212L0 173Z" fill="#4487ff"></path><path d="M0 445L25 462C50 479 100 513 150 503C200 493 250 439 300 421C350 403 400 421 450 426C500 431 550 423 600 393C650 363 700 311 750 300C800 289 850 319 875 334L900 349L900 281L875 273C850 265 800 249 750 262C700 275 650 317 600 333C550 349 500 339 450 325C400 311 350 293 300 312C250 331 200 387 150 396C100 405 50 367 25 348L0 329Z" fill="#9db2ff"></path><path d="M0 601L25 601C50 601 100 601 150 601C200 601 250 601 300 601C350 601 400 601 450 601C500 601 550 601 600 601C650 601 700 601 750 601C800 601 850 601 875 601L900 601L900 347L875 332C850 317 800 287 750 298C700 309 650 361 600 391C550 421 500 429 450 424C400 419 350 401 300 419C250 437 200 491 150 501C100 511 50 477 25 460L0 443Z" fill="#F3F6FB"></path></svg>