<svg id="visual" viewBox="0 0 900 600" width="900" height="600" xmlns="http://www.w3.org/2000/svg" xmlns:xlink="http://www.w3.org/1999/xlink" version="1.1"><path d="M494 600L495.5 588.8C497 577.7 500 555.3 521 533.2C542 511 581 489 590 466.8C599 444.7 578 422.3 575 400C572 377.7 587 355.3 576.5 333.2C566 311 530 289 534.5 266.8C539 244.7 584 222.3 584 200C584 177.7 539 155.3 522.5 133.2C506 111 518 89 540.5 66.8C563 44.7 596 22.3 612.5 11.2L629 0L900 0L900 11.2C900 22.3 900 44.7 900 66.8C900 89 900 111 900 133.2C900 155.3 900 177.7 900 200C900 222.3 900 244.7 900 266.8C900 289 900 311 900 333.2C900 355.3 900 377.7 900 400C900 422.3 900 444.7 900 466.8C900 489 900 511 900 533.2C900 555.3 900 577.7 900 588.8L900 600Z" fill="#e88a56"></path><path d="M224 600L242 588.8C260 577.7 296 555.3 317 533.2C338 511 344 489 341 466.8C338 444.7 326 422.3 335 400C344 377.7 374 355.3 365 333.2C356 311 308 289 303.5 266.8C299 244.7 338 222.3 332 200C326 177.7 275 155.3 264.5 133.2C254 111 284 89 305 66.8C326 44.7 338 22.3 344 11.2L350 0L630 0L613.5 11.2C597 22.3 564 44.7 541.5 66.8C519 89 507 111 523.5 133.2C540 155.3 585 177.7 585 200C585 222.3 540 244.7 535.5 266.8C531 289 567 311 577.5 333.2C588 355.3 573 377.7 576 400C579 422.3 600 444.7 591 466.8C582 489 543 511 522 533.2C501 555.3 498 577.7 496.5 588.8L495 600Z" fill="#d65c15"></path><path d="M0 600L0 588.8C0 577.7 0 555.3 0 533.2C0 511 0 489 0 466.8C0 444.7 0 422.3 0 400C0 377.7 0 355.3 0 333.2C0 311 0 289 0 266.8C0 244.7 0 222.3 0 200C0 177.7 0 155.3 0 133.2C0 111 0 89 0 66.8C0 44.7 0 22.3 0 11.2L0 0L351 0L345 11.2C339 22.3 327 44.7 306 66.8C285 89 255 111 265.5 133.2C276 155.3 327 177.7 333 200C339 222.3 300 244.7 304.5 266.8C309 289 357 311 366 333.2C375 355.3 345 377.7 336 400C327 422.3 339 444.7 342 466.8C345 489 339 511 318 533.2C297 555.3 261 577.7 243 588.8L225 600Z" fill="#9d4314"></path></svg>