<svg id="visual" viewBox="0 0 900 600" width="900" height="600" xmlns="http://www.w3.org/2000/svg" xmlns:xlink="http://www.w3.org/1999/xlink" version="1.1"><rect x="0" y="0" width="900" height="600" fill="#F3F6FB"></rect><path d="M0 380L37.5 367C75 354 150 328 225 310.5C300 293 375 284 450 283C525 282 600 289 675 309.2C750 329.3 825 362.7 862.5 379.3L900 396L900 601L862.5 601C825 601 750 601 675 601C600 601 525 601 450 601C375 601 300 601 225 601C150 601 75 601 37.5 601L0 601Z" fill="#FF6752" stroke-linecap="round" stroke-linejoin="miter"></path></svg>