<svg id="visual" viewBox="0 0 900 600" width="900" height="600" xmlns="http://www.w3.org/2000/svg" xmlns:xlink="http://www.w3.org/1999/xlink" version="1.1"><path d="M683 600L678.5 580C674 560 665 520 650 480C635 440 614 400 599 360C584 320 575 280 582.5 240C590 200 614 160 633.5 120C653 80 668 40 675.5 20L683 0L900 0L900 20C900 40 900 80 900 120C900 160 900 200 900 240C900 280 900 320 900 360C900 400 900 440 900 480C900 520 900 560 900 580L900 600Z" fill="#ffffff"></path><path d="M575 600L560 580C545 560 515 520 494 480C473 440 461 400 443 360C425 320 401 280 414.5 240C428 200 479 160 512 120C545 80 560 40 567.5 20L575 0L684 0L676.5 20C669 40 654 80 634.5 120C615 160 591 200 583.5 240C576 280 585 320 600 360C615 400 636 440 651 480C666 520 675 560 679.5 580L684 600Z" fill="#ffcec2"></path><path d="M422 600L401 580C380 560 338 520 324.5 480C311 440 326 400 306.5 360C287 320 233 280 231.5 240C230 200 281 160 323 120C365 80 398 40 414.5 20L431 0L576 0L568.5 20C561 40 546 80 513 120C480 160 429 200 415.5 240C402 280 426 320 444 360C462 400 474 440 495 480C516 520 546 560 561 580L576 600Z" fill="#ff9d88"></path><path d="M0 600L0 580C0 560 0 520 0 480C0 440 0 400 0 360C0 320 0 280 0 240C0 200 0 160 0 120C0 80 0 40 0 20L0 0L432 0L415.5 20C399 40 366 80 324 120C282 160 231 200 232.5 240C234 280 288 320 307.5 360C327 400 312 440 325.5 480C339 520 381 560 402 580L423 600Z" fill="#ff6752"></path></svg>