<svg id="visual" viewBox="0 0 960 540" width="960" height="540" xmlns="http://www.w3.org/2000/svg" xmlns:xlink="http://www.w3.org/1999/xlink" version="1.1"><path d="M729 540L724.2 522C719.3 504 709.7 468 693.7 432C677.7 396 655.3 360 639.3 324C623.3 288 613.7 252 621.7 216C629.7 180 655.3 144 676.2 108C697 72 713 36 721 18L729 0L960 0L960 18C960 36 960 72 960 108C960 144 960 180 960 216C960 252 960 288 960 324C960 360 960 396 960 432C960 468 960 504 960 522L960 540Z" fill="#ffffff"></path><path d="M613 540L597 522C581 504 549 468 526.7 432C504.3 396 491.7 360 472.5 324C453.3 288 427.7 252 442 216C456.3 180 510.7 144 545.8 108C581 72 597 36 605 18L613 0L730 0L722 18C714 36 698 72 677.2 108C656.3 144 630.7 180 622.7 216C614.7 252 624.3 288 640.3 324C656.3 360 678.7 396 694.7 432C710.7 468 720.3 504 725.2 522L730 540Z" fill="#ffcec2"></path><path d="M450 540L427.7 522C405.3 504 360.7 468 346.3 432C332 396 348 360 327.2 324C306.3 288 248.7 252 247 216C245.3 180 299.7 144 344.5 108C389.3 72 424.7 36 442.3 18L460 0L614 0L606 18C598 36 582 72 546.8 108C511.7 144 457.3 180 443 216C428.7 252 454.3 288 473.5 324C492.7 360 505.3 396 527.7 432C550 468 582 504 598 522L614 540Z" fill="#ff9d88"></path><path d="M0 540L0 522C0 504 0 468 0 432C0 396 0 360 0 324C0 288 0 252 0 216C0 180 0 144 0 108C0 72 0 36 0 18L0 0L461 0L443.3 18C425.7 36 390.3 72 345.5 108C300.7 144 246.3 180 248 216C249.7 252 307.3 288 328.2 324C349 360 333 396 347.3 432C361.7 468 406.3 504 428.7 522L451 540Z" fill="#ff6752"></path></svg>